<svg width="24" height="24" viewBox="0 0 24 24" fill="current" xmlns="http://www.w3.org/2000/svg">
<path d="M11.9998 1.99991C17.522 1.99991 21.9998 5.97769 21.9998 10.8888C21.9998 13.9555 19.5109 16.4443 16.4442 16.4443H14.4776C13.5554 16.4443 12.8109 17.1888 12.8109 18.111C12.8109 18.5332 12.9776 18.9221 13.2331 19.211C13.4998 19.511 13.6665 19.8999 13.6665 20.3332C13.6665 21.2555 12.8998 21.9999 11.9998 21.9999C6.47754 21.9999 1.99976 17.5221 1.99976 11.9999C1.99976 6.47769 6.47754 1.99991 11.9998 1.99991ZM7.49976 11.9999C8.32819 11.9999 8.99976 11.3283 8.99976 10.4999C8.99976 9.67148 8.32819 8.99991 7.49976 8.99991C6.67133 8.99991 5.99976 9.67148 5.99976 10.4999C5.99976 11.3283 6.67133 11.9999 7.49976 11.9999ZM16.4998 11.9999C17.3282 11.9999 17.9998 11.3283 17.9998 10.4999C17.9998 9.67148 17.3282 8.99991 16.4998 8.99991C15.6714 8.99991 14.9998 9.67148 14.9998 10.4999C14.9998 11.3283 15.6714 11.9999 16.4998 11.9999ZM11.9998 8.99991C12.8282 8.99991 13.4998 8.32834 13.4998 7.49991C13.4998 6.67148 12.8282 5.99991 11.9998 5.99991C11.1714 5.99991 10.4998 6.67148 10.4998 7.49991C10.4998 8.32834 11.1714 8.99991 11.9998 8.99991Z"/>
</svg>
