<svg width="24" height="24" viewBox="0 0 24 24" fill="current" xmlns="http://www.w3.org/2000/svg">
<path d="M18.3358 18.339H15.6703V14.1622C15.6703 13.1662 15.6501 11.8845 14.2813 11.8845C12.8916 11.8845 12.6793 12.9683 12.6793 14.0887V18.339H10.0138V9.74997H12.5743V10.9207H12.6088C12.9666 10.2457 13.8366 9.53322 15.1363 9.53322C17.8371 9.53322 18.3366 11.3108 18.3366 13.6245L18.3358 18.339ZM7.00336 8.57472C6.14536 8.57472 5.45611 7.88022 5.45611 7.02597C5.45611 6.17247 6.14611 5.47872 7.00336 5.47872C7.85836 5.47872 8.55136 6.17247 8.55136 7.02597C8.55136 7.88022 7.85761 8.57472 7.00336 8.57472ZM8.33986 18.339H5.66686V9.74997H8.33986V18.339ZM19.6693 2.99997H4.32886C3.59461 2.99997 3.00061 3.58047 3.00061 4.29672V19.7033C3.00061 20.4202 3.59461 21 4.32886 21H19.6671C20.4006 21 21.0006 20.4202 21.0006 19.7033V4.29672C21.0006 3.58047 20.4006 2.99997 19.6671 2.99997H19.6693Z"/>
</svg>
